<svg id="Layer_1" data-name="Layer 1" xmlns="http://www.w3.org/2000/svg" viewBox="0 0 331.18 158.19"><defs><style>.cls-1{fill:#fefdfd;}.cls-2{fill:#ed332a;}.cls-3{fill:#f69421;}</style></defs><title>logo</title><path class="cls-1" d="M298.6,497.89q-80.49,0-161,.1c-3.42,0-4.11-.69-4.1-4.26q.23-75.09,0-150.2c0-3.1.59-3.73,3.58-3.72q162,.15,324,0c3,0,3.59.61,3.58,3.72q-.17,75.36,0,150.72c0,3.1-.59,3.73-3.58,3.73Q379.86,497.8,298.6,497.89Zm2.17-84c-3,2-6-.87-9,0-5.06,1.42-10.33,1.66-15.45,2.5a143.3,143.3,0,0,0-26.66,7.06c-3.21,1.18-4.21,3.33-4.11,6.72.18,6.57,0,13.16.05,19.73,0,7.76,1.09,8.5,8.19,6.37,15.86-4.76,30.6-4.1,42.55,9.77,2.24,2.6,4.55,2.68,6.38-.65a38.59,38.59,0,0,1,22.79-11.72c7.45-1,14.56.67,21.53,3.05,4,1.36,5.79.1,5.81-4.11.05-8.13-.06-16.26.06-24.39a4.64,4.64,0,0,0-3.5-5c-3.52-1.22-7.33-1.9-10.66-3.18C326.37,415.33,313.64,414.41,300.77,413.92Zm.72-44.06a5.15,5.15,0,0,0-5.21-.49A230.36,230.36,0,0,1,273,376.65c-20.6,5.23-40.69,12.22-61.19,17.73-2.16.58-3.54,1.72-3.64,4.18-.11,2.78,1.78,3.32,3.81,3.88q14.94,4.1,29.85,8.31c1.85.52,3.57.78,4,3.61.47,3.05,2.75,4,5.71,2.68,15.64-7.1,32.13-9.74,49.07-9.88,15.38.49,30.45,2.9,45,8.38,4.08,1.54,7.13,2,7.39-4.09.13-3.08,3.16-2.45,5.08-3s1.67,1.14,1.67,2.29c0,7.44,1,15.08-.27,22.28-1.77,9.85-.61,19.58-1,29.34-.16,3.56,1.73,6.2,5.26,6.3,3.77.11,5-2.9,5.16-6.29a96.37,96.37,0,0,0-.06-13.49c-.57-5.35,2.76-11.66-3.26-15.88-.41-.29-.16-1.65-.16-2.51,0-6.75.12-13.51-.06-20.26-.08-2.9.7-4.33,3.62-5,5.52-1.21,10.93-3,16.42-4.34,2.43-.61,4.49-1.89,4.69-4.41.22-2.81-2.25-3.38-4.43-4-6-1.58-11.88-3.28-17.83-4.91-14.87-4.08-29.74-8.18-44.62-12.2C316,373.53,308.72,371.73,301.49,369.86Z" transform="translate(-133.5 -339.81)"/><path class="cls-2" d="M301.49,369.86c7.23,1.87,14.46,3.67,21.67,5.62,14.88,4,29.75,8.12,44.62,12.2,6,1.63,11.87,3.33,17.83,4.91,2.18.58,4.65,1.15,4.43,4-.2,2.52-2.26,3.8-4.69,4.41-5.49,1.38-10.9,3.13-16.42,4.34-2.92.64-3.7,2.07-3.62,5,.18,6.75.05,13.51.06,20.26,0,.86-.25,2.22.16,2.51,6,4.22,2.69,10.53,3.26,15.88a96.37,96.37,0,0,1,.06,13.49c-.12,3.39-1.39,6.4-5.16,6.29-3.53-.1-5.42-2.74-5.26-6.3.42-9.76-.74-19.49,1-29.34,1.29-7.2.28-14.84.27-22.28,0-1.15.17-2.78-1.67-2.29s-4.95-.12-5.08,3c-.26,6.1-3.31,5.63-7.39,4.09-14.51-5.48-29.58-7.89-45-8.38,2.11-1.87,2.09-4.36,1.86-6.91,13.6-.35,26.71,2.6,39.73,6.25,1.21.33,2.87,2.18,3.72-.33,1.05-3.13,3.78-3.1,6.06-3.77,6.39-1.88,12.83-3.57,20.66-5.72L363,394l-63.34-17.63C301.81,374.68,301.84,372.33,301.49,369.86Z" transform="translate(-133.5 -339.81)"/><path class="cls-3" d="M301.49,369.86c.35,2.47.32,4.82-1.88,6.5l-72.85,21.32c7.89,3.29,15.56,5.28,23,8,3.16,1.15,6.38,2.73,9.23,1.11a34.45,34.45,0,0,1,5.84-2.44c12.26-4.36,25.09-3,37.68-4.1.23,2.55.25,5-1.86,6.91-16.94.14-33.43,2.78-49.07,9.88-3,1.34-5.24.37-5.71-2.68-.43-2.83-2.15-3.09-4-3.61q-14.91-4.19-29.85-8.31c-2-.56-3.92-1.1-3.81-3.88.1-2.46,1.48-3.6,3.64-4.18,20.5-5.51,40.59-12.5,61.19-17.73a230.36,230.36,0,0,0,23.26-7.28A5.15,5.15,0,0,1,301.49,369.86Z" transform="translate(-133.5 -339.81)"/><path class="cls-3" d="M302.67,465.39c-1.83,3.33-4.14,3.25-6.38.65-12-13.87-26.69-14.53-42.55-9.77-7.1,2.13-8.18,1.39-8.19-6.37,0-6.57.13-13.16-.05-19.73-.1-3.39.9-5.54,4.11-6.72a143.3,143.3,0,0,1,26.66-7.06c5.12-.84,10.39-1.08,15.45-2.5,3-.84,6,2,9,0,2,2,2,4.45,1.74,7-12.31.38-24.54,1.36-36.47,4.84-13.82,4-13.73,4-13.38,18.87.08,3.26,1.07,3.29,3.8,3.17,3.39-.15,6.52-1.37,9.82-1.6a41.65,41.65,0,0,1,33.3,12.14C300.79,460.62,303.38,462.22,302.67,465.39Z" transform="translate(-133.5 -339.81)"/><path class="cls-2" d="M302.51,420.94c.26-2.57.23-5.05-1.74-7,12.87.49,25.6,1.41,37.93,6.17,3.33,1.28,7.14,2,10.66,3.18a4.64,4.64,0,0,1,3.5,5c-.12,8.13,0,16.26-.06,24.39,0,4.21-1.84,5.47-5.81,4.11-7-2.38-14.08-4.07-21.53-3.05a38.59,38.59,0,0,0-22.79,11.72c.71-3.17-1.88-4.77-3.09-7,12.28-11.16,26.42-14.58,42.17-10.7,3.58.89,4.29-.32,4.08-3.66a72.82,72.82,0,0,1,0-10.34c.27-3.21-1.07-4.42-3.83-5.39C329.2,423.72,315.92,422,302.51,420.94Z" transform="translate(-133.5 -339.81)"/><path class="cls-1" d="M302.49,400.25c-12.59,1.1-25.42-.26-37.68,4.1a34.45,34.45,0,0,0-5.84,2.44c-2.85,1.62-6.07,0-9.23-1.11-7.42-2.72-15.09-4.71-23-8l72.85-21.32L363,394l9.71,2.69c-7.83,2.15-14.27,3.84-20.66,5.72-2.28.67-5,.64-6.06,3.77-.85,2.51-2.51.66-3.72.33C329.2,402.85,316.09,399.9,302.49,400.25Z" transform="translate(-133.5 -339.81)"/><path class="cls-1" d="M302.51,420.94c13.41,1,26.69,2.78,39.51,7.33,2.76,1,4.1,2.18,3.83,5.39a72.82,72.82,0,0,0,0,10.34c.21,3.34-.5,4.55-4.08,3.66-15.75-3.88-29.89-.46-42.17,10.7a41.65,41.65,0,0,0-33.3-12.14c-3.3.23-6.43,1.45-9.82,1.6-2.73.12-3.72.09-3.8-3.17-.35-14.87-.44-14.84,13.38-18.87C278,422.3,290.2,421.32,302.51,420.94Z" transform="translate(-133.5 -339.81)"/></svg>